<svg width="20" height="20" viewBox="0 0 20 20" fill="none" xmlns="http://www.w3.org/2000/svg">
<path d="M9.99999 19C9.35499 18.428 8.62599 17.833 7.85499 17.2H7.84499C5.12999 14.98 2.05299 12.468 0.693992 9.458C0.24751 8.49973 0.0108963 7.45713 -1.91116e-05 6.4C-0.00300091 4.94949 0.578763 3.55899 1.6138 2.54277C2.64884 1.52655 4.04978 0.970397 5.49999 1C6.68062 1.00187 7.83583 1.34308 8.82799 1.983C9.26396 2.26597 9.65841 2.60826 9.99999 3C10.3435 2.6098 10.738 2.26771 11.173 1.983C12.1647 1.34296 13.3197 1.00172 14.5 1C15.9502 0.970397 17.3511 1.52655 18.3862 2.54277C19.4212 3.55899 20.003 4.94949 20 6.4C19.9898 7.45882 19.7532 8.5032 19.306 9.463C17.947 12.473 14.871 14.984 12.156 17.2L12.146 17.208C11.374 17.837 10.646 18.432 10.001 19.008L9.99999 19ZM5.49999 3C4.5685 2.98835 3.67006 3.34485 2.99999 3.992C2.35438 4.62617 1.99355 5.49505 1.99991 6.4C2.01132 7.1705 2.18582 7.92986 2.51199 8.628C3.1535 9.92671 4.0191 11.1021 5.06899 12.1C6.05999 13.1 7.19999 14.068 8.18599 14.882C8.45899 15.107 8.73699 15.334 9.01499 15.561L9.18999 15.704C9.45699 15.922 9.73299 16.148 9.99999 16.37L10.013 16.358L10.019 16.353H10.025L10.034 16.346H10.039H10.044L10.062 16.331L10.103 16.298L10.11 16.292L10.121 16.284H10.127L10.136 16.276L10.8 15.731L10.974 15.588C11.255 15.359 11.533 15.132 11.806 14.907C12.792 14.093 13.933 13.126 14.924 12.121C15.974 11.1236 16.8397 9.94852 17.481 8.65C17.8131 7.9458 17.9901 7.17851 18 6.4C18.0042 5.49784 17.6435 4.6323 17 4C16.3312 3.34992 15.4326 2.99049 14.5 3C13.3619 2.99033 12.2739 3.46737 11.51 4.311L9.99999 6.051L8.48999 4.311C7.72606 3.46737 6.63807 2.99033 5.49999 3Z" fill="#C4C4C4"/>
</svg>
